<?xml version="1.0" encoding="UTF-8" standalone="no" ?>
<!DOCTYPE svg PUBLIC "-//W3C//DTD SVG 1.1//EN" "http://www.w3.org/Graphics/SVG/1.1/DTD/svg11.dtd">
<svg xmlns="http://www.w3.org/2000/svg" xmlns:xlink="http://www.w3.org/1999/xlink" version="1.1" width="1080" height="1080" viewBox="0 0 1080 1080" xml:space="preserve">
<desc>Created with Fabric.js 5.2.4</desc>
<defs>
</defs>
<g transform="matrix(1 0 0 1 540 540)" id="abc86891-7350-4baa-8197-67fd8abf9657"  >
<rect style="stroke: none; stroke-width: 1; stroke-dasharray: none; stroke-linecap: butt; stroke-dashoffset: 0; stroke-linejoin: miter; stroke-miterlimit: 4; fill: rgb(255,255,255); fill-rule: nonzero; opacity: 1; visibility: hidden;" vector-effect="non-scaling-stroke"  x="-540" y="-540" rx="0" ry="0" width="1080" height="1080" />
</g>
<g transform="matrix(1 0 0 1 540 540)" id="c64024dd-d3fe-4e6c-afb6-78f1460af184"  >
</g>
<g transform="matrix(33.75 0 0 33.75 540 540)"  >
<path style="stroke: none; stroke-width: 1; stroke-dasharray: none; stroke-linecap: butt; stroke-dashoffset: 0; stroke-linejoin: miter; stroke-miterlimit: 4; fill: rgb(0,0,0); fill-rule: nonzero; opacity: 1;"  transform=" translate(-16, -16)" d="M 28.3180348 14.8612772 L 5.06626821 3.13779665 C 3.8971849799999996 2.6167530699999997 2.5982035999999997 3.65884023 3.1177961499999993 4.83118829 L 6.3652495799999995 13.5586683 L 21.173637199999998 16.0336253 L 6.365249579999999 18.5085823 L 3.1177961499999984 27.2360623 C 2.7281017399999983 28.4084104 3.8971849799999987 29.4504975 5.066268209999999 28.799193 L 28.3180348 17.0757125 C 29.2273217 16.684929800000003 29.2273217 15.382320800000002 28.3180348 14.861277200000002 Z" stroke-linecap="round" />
</g>
</svg>