<?xml version="1.0" encoding="UTF-8" standalone="no" ?>
<!DOCTYPE svg PUBLIC "-//W3C//DTD SVG 1.1//EN" "http://www.w3.org/Graphics/SVG/1.1/DTD/svg11.dtd">
<svg xmlns="http://www.w3.org/2000/svg" xmlns:xlink="http://www.w3.org/1999/xlink" version="1.1" width="1080" height="1080" viewBox="0 0 1080 1080" xml:space="preserve">
<desc>Created with Fabric.js 5.2.4</desc>
<defs>
</defs>
<g transform="matrix(1 0 0 1 540 540)" id="c259d092-9f94-4982-a460-32fd0bf42aca"  >
<rect style="stroke: none; stroke-width: 1; stroke-dasharray: none; stroke-linecap: butt; stroke-dashoffset: 0; stroke-linejoin: miter; stroke-miterlimit: 4; fill: rgb(255,255,255); fill-rule: nonzero; opacity: 1; visibility: hidden;" vector-effect="non-scaling-stroke"  x="-540" y="-540" rx="0" ry="0" width="1080" height="1080" />
</g>
<g transform="matrix(1 0 0 1 540 540)" id="b44f1346-c492-4cdc-9d6c-7a41bca75ba5"  >
</g>
<g transform="matrix(33.75 0 0 33.75 540 540)"  >
<path style="stroke: none; stroke-width: 1; stroke-dasharray: none; stroke-linecap: butt; stroke-dashoffset: 0; stroke-linejoin: miter; stroke-miterlimit: 4; fill: rgb(0,0,0); fill-rule: nonzero; opacity: 1;"  transform=" translate(-16, -16)" d="M 15.9999702 3.70275742 C 20.005162300000002 3.70275742 20.4795382 3.7180003200000002 22.0612277 3.79016595 C 23.5237129 3.8569132 24.3179515 4.1012759899999995 24.8465706 4.3066384 C 25.5466724 4.57874806 26.0464135 4.90385062 26.5712814 5.42871858 C 27.0961493 5.95358655 27.421252 6.45332754 27.693302 7.15342935 C 27.898723999999998 7.6820485 28.1430868 8.47628716 28.2098341 9.93871281 C 28.2819996 11.5204618 28.297242599999997 11.9948377 28.297242599999997 16.0000298 C 28.297242599999997 20.0052218 28.281999599999995 20.4795978 28.2098341 22.0612872 C 28.1430868 23.5237724 27.898723999999998 24.3180111 27.693302 24.8466302 C 27.421252 25.546732 27.0961493 26.046473 26.5712814 26.5713409 C 26.0464135 27.0962089 25.5466724 27.421311499999998 24.8465706 27.6933616 C 24.3179515 27.8987835 23.5237129 28.1431464 22.0612277 28.2098936 C 20.4797764 28.282059200000003 20.0054005 28.2973021 15.9999702 28.2973021 C 11.9945399 28.2973021 11.520164099999999 28.2820592 9.93871281 28.2098936 C 8.47622762 28.1431464 7.68198896 27.8987835 7.15342935 27.6933616 C 6.453268 27.421311499999998 5.953526999999999 27.0962089 5.428659039999999 26.5713409 C 4.90379107 26.046473 4.578688519999999 25.546732 4.3066384 24.8466302 C 4.10121646 24.3180111 3.8568536499999997 23.5237724 3.79010641 22.0613467 C 3.71794077 20.4795978 3.70269788 20.0052218 3.70269788 16.0000298 C 3.70269788 11.9948377 3.7179407700000002 11.5204618 3.79010641 9.93877236 C 3.85685365 8.47628716 4.10121646 7.6820485 4.3066384 7.15342935 C 4.57868852 6.45332754 4.90379107 5.95358655 5.428659039999999 5.42871858 C 5.953527 4.90385062 6.453268 4.57874806 7.15342935 4.3066384 C 7.68198896 4.1012759899999995 8.47622762 3.8569131999999997 9.93865327 3.7901659499999996 C 11.520402299999999 3.7180003199999994 11.9947781 3.7027574199999997 15.9999702 3.7027574199999997 M 15.9999702 0.9999999999999996 C 11.9261851 0.9999999999999996 11.4154287 1.0172673499999996 9.815519179999999 1.0902665699999996 C 8.218884529999999 1.1631467099999997 7.1285405499999985 1.4166790699999996 6.1743704799999986 1.7875103499999996 C 5.187987879999999 2.1708455599999996 4.351473979999999 2.6837454599999995 3.5175799499999987 3.5176394899999996 C 2.6836859199999985 4.351533519999999 2.1707860199999987 5.188047409999999 1.7874507999999987 6.174430019999999 C 1.4166195299999986 7.128600099999999 1.1630871599999986 8.21894407 1.0902070299999986 9.815578729999999 C 1.01720781 11.4154287 1 11.9262446 1 16.0000298 C 1 20.073815 1.01720781 20.5846308 1.09020703 22.1844808 C 1.16308716 23.7811155 1.41661953 24.8714595 1.7874508 25.825629499999998 C 2.17078602 26.811952499999997 2.6836859200000003 27.648525999999997 3.51757995 28.482419999999998 C 4.35147398 29.316314099999996 5.18798788 29.829213999999997 6.17437048 30.212549199999998 C 7.12854055 30.583380499999997 8.21888453 30.836912899999998 9.81551918 30.9097929 C 11.4154287 30.9827922 11.9261851 31 15.9999702 31 C 20.0737554 31 20.5845713 30.9827922 22.1844212 30.9097929 C 23.7810559 30.836912899999998 24.871399999999998 30.5833805 25.82557 30.212549199999998 C 26.8119525 29.829213999999997 27.6484664 29.3163141 28.4823605 28.482419999999998 C 29.316254599999997 27.648525999999997 29.829154499999998 26.812012099999997 30.2124897 25.825629499999998 C 30.583320999999998 24.871459499999997 30.836853299999998 23.7811155 30.9097334 22.1844808 C 30.9827327 20.5846308 31 20.073815 31 16.0000298 C 31 11.9262446 30.9827327 11.4154287 30.9097334 9.81557873 C 30.8368533 8.218944070000001 30.583321 7.1286001 30.2124897 6.174430020000001 C 29.829154499999998 5.188047410000001 29.3162546 4.351533520000001 28.4823605 3.517639490000001 C 27.648466399999997 2.683745460000001 26.8119525 2.170845560000001 25.82557 1.787510350000001 C 24.871399999999998 1.416679070000001 23.7810559 1.1631467100000008 22.1844212 1.090266570000001 C 20.5845713 1.01726735 20.0737554 1 15.9999702 1 Z M 15.9999702 8.29730213 C 11.7458901 8.29730213 8.29724259 11.7459496 8.29724259 16.0000298 C 8.29724259 20.2541099 11.7458901 23.7027575 15.9999702 23.7027575 C 20.2540504 23.7027575 23.7026979 20.2541099 23.7026979 16.0000298 C 23.7026979 11.7459496 20.2540504 8.29730213 15.9999702 8.29730213 Z M 15.9999702 21.0000596 C 13.2385634 21.0000596 10.999940500000001 18.7614366 10.999940500000001 16.0000298 C 10.9999405 13.2386229 13.2385634 11 15.9999702 11 C 18.7613771 11 21 13.2386229 21 16.0000298 C 21 18.7614366 18.7613771 21.0000596 15.9999702 21.0000596 Z M 25.806992700000002 7.992979930000001 C 25.806992700000002 8.98710307 25.0011432 9.79301208 24.00702 9.79301208 C 23.0128969 9.79301208 22.2069879 8.98710307 22.2069879 7.992979930000001 C 22.2069879 6.9988567800000006 23.0128969 6.1930073100000005 24.00702 6.1930073100000005 C 25.0011432 6.1930073100000005 25.806992700000002 6.9988567800000006 25.806992700000002 7.992979930000001 Z" stroke-linecap="round" />
</g>
</svg>