<?xml version="1.0" standalone="no"?>
<!DOCTYPE svg PUBLIC "-//W3C//DTD SVG 20010904//EN"
 "http://www.w3.org/TR/2001/REC-SVG-20010904/DTD/svg10.dtd">
<svg version="1.0" xmlns="http://www.w3.org/2000/svg"
 width="1244.000000pt" height="1244.000000pt" viewBox="0 0 1244.000000 1244.000000"
 preserveAspectRatio="xMidYMid meet">
<metadata>
Created by potrace 1.14, written by Peter Selinger 2001-2017
</metadata>
<g transform="translate(0.000000,1244.000000) scale(0.100000,-0.100000)"
fill="#000000" stroke="none">
<path d="M1469 12436 c-2 -2 -28 -7 -58 -10 -286 -34 -603 -172 -826 -359
-317 -265 -517 -632 -573 -1047 -10 -75 -9 -9528 1 -9610 4 -36 13 -85 18
-110 6 -25 13 -56 15 -68 12 -60 80 -246 121 -327 229 -460 632 -768 1148
-877 l110 -23 4775 0 c2626 0 4798 3 4825 7 312 46 567 153 801 339 337 267
539 629 603 1079 12 78 9 9556 -2 9615 -42 217 -83 347 -160 500 -86 172 -177
297 -316 434 -234 229 -544 388 -856 437 -22 4 -51 9 -65 12 -27 7 -9554 14
-9561 8z"/>
</g>
</svg>
