<?xml version="1.0" encoding="UTF-8" standalone="no" ?>
<!DOCTYPE svg PUBLIC "-//W3C//DTD SVG 1.1//EN" "http://www.w3.org/Graphics/SVG/1.1/DTD/svg11.dtd">
<svg xmlns="http://www.w3.org/2000/svg" xmlns:xlink="http://www.w3.org/1999/xlink" version="1.1" width="1080" height="1080" viewBox="0 0 1080 1080" xml:space="preserve">
<desc>Created with Fabric.js 5.2.4</desc>
<defs>
</defs>
<g transform="matrix(1 0 0 1 540 540)" id="76353c08-2e55-4b44-a860-6485e6e33d97"  >
<rect style="stroke: none; stroke-width: 1; stroke-dasharray: none; stroke-linecap: butt; stroke-dashoffset: 0; stroke-linejoin: miter; stroke-miterlimit: 4; fill: rgb(255,255,255); fill-rule: nonzero; opacity: 1; visibility: hidden;" vector-effect="non-scaling-stroke"  x="-540" y="-540" rx="0" ry="0" width="1080" height="1080" />
</g>
<g transform="matrix(1 0 0 1 540 540)" id="18a15952-3985-4bd3-832c-d8eb911c5b87"  >
</g>
<g transform="matrix(33.75 0 0 33.75 540 540)"  >
<path style="stroke: none; stroke-width: 1; stroke-dasharray: none; stroke-linecap: butt; stroke-dashoffset: 0; stroke-linejoin: miter; stroke-miterlimit: 4; fill: rgb(0,0,0); fill-rule: evenodd; opacity: 1;"  transform=" translate(-16, -16)" d="M 16 1 C 24.2846154 1 31 7.71538462 31 16 C 31 24.2846154 24.2846154 31 16 31 C 7.71538462 31 1 24.2846154 1 16 C 1 7.71538462 7.71538462 1 16 1 Z M 22.48 21.7882692 C 18.5684615 19.403846199999997 13.7194231 18.848846199999997 8.06557692 20.1382692 C 7.8264388899999995 20.1919275 7.61853434 20.3386532 7.48785266 20.5459899 C 7.357170989999999 20.753326599999998 7.31448275 21.004185999999997 7.36923077 21.2430769 C 7.48368774 21.740401799999997 7.9795625 22.050839999999997 8.476923079999999 21.936538499999997 C 13.643269199999999 20.759615399999998 18.0301923 21.239615399999998 21.515384599999997 23.364423099999996 C 21.9513063 23.630529299999996 22.520393999999996 23.493163299999996 22.786923099999996 23.057499999999997 C 23.053461499999997 22.6225 22.916153799999996 22.0536538 22.479999999999997 21.7882692 Z M 24.6665385 16.889615399999997 C 19.9796154 14.268653799999997 13.124615400000001 13.530769199999996 7.60923077 15.053846199999997 C 6.98442308 15.2269231 6.63134615 15.8275 6.82 16.3975 C 7.009807690000001 16.9657692 7.671538460000001 17.2871154 8.2975 17.1151923 C 13.1246154 15.7813462 19.3467308 16.4430769 23.4273077 18.7253846 C 23.9840385 19.0363462 24.7126923 18.877692300000003 25.0559615 18.370576900000003 C 25.3980769 17.8646154 25.2226923 17.201153800000004 24.666538499999998 16.889615400000004 Z M 26.275 12.1380769 C 20.711153799999998 8.70884615 11.907307699999999 8.386923079999999 6.611153849999997 10.055961499999999 C 5.869230769999997 10.289615399999999 5.451538459999997 11.1025 5.676538459999997 11.872115399999998 C 5.900384619999997 12.641153799999998 6.683846149999997 13.075 7.424615379999997 12.841923099999999 C 12.038269199999997 11.388076899999998 20.0107692 11.6621154 24.8436538 14.6419231 C 25.508269199999997 15.0526923 26.369615399999997 14.8248077 26.7648077 14.1325 C 27.16 13.4419231 26.941346199999998 12.5482692 26.275 12.1380769 Z" stroke-linecap="round" />
</g>
</svg>